<svg width="47" height="44" viewBox="0 0 47 44" fill="none" xmlns="http://www.w3.org/2000/svg">
<path fill-rule="evenodd" clip-rule="evenodd" d="M12.0209 38.4051C11.6965 38.9368 11.3014 39.442 10.8389 39.904C8.87401 41.8645 6.14385 42.5926 3.60751 42.092C3.1059 39.5607 3.83503 36.8361 5.79988 34.8751C6.26031 34.4161 6.7615 34.0217 7.29472 33.6979C6.50654 35.3222 6.26572 37.1482 6.56893 38.8953C6.59014 39.0178 6.6883 39.1153 6.81058 39.1365C8.56165 39.4387 10.3934 39.1963 12.0209 38.4051Z" fill="#FFDCA1"/>
<path fill-rule="evenodd" clip-rule="evenodd" d="M12.2954 38.0427C10.6982 38.8193 8.90096 39.0572 7.18275 38.7608C7.06255 38.74 6.96647 38.6437 6.94526 38.5238C6.64828 36.8094 6.88412 35.0179 7.65775 33.4239C7.13451 33.7415 6.64246 34.1284 6.19118 34.5791C6.06432 34.7057 5.94328 34.8357 5.82724 34.9685C5.69539 35.0839 5.56521 35.2034 5.43959 35.3292C3.51176 37.2532 2.79595 39.9268 3.28799 42.4107C5.77691 42.9018 8.45591 42.1878 10.3837 40.2639C10.5094 40.1385 10.6283 40.0094 10.7439 39.8782C10.8775 39.7616 11.0081 39.6408 11.1353 39.5138C11.5895 39.0605 11.9768 38.5649 12.2954 38.0427Z" fill="#FFDCA1"/>
<path fill-rule="evenodd" clip-rule="evenodd" d="M5.6364 35.006C5.06574 35.3535 4.52878 35.7764 4.03382 36.2704C3.93691 36.3667 3.84499 36.463 3.75265 36.5593C2.81681 38.4895 2.55686 40.6625 2.96821 42.7309C3.59918 42.8546 4.24012 42.9165 4.88149 42.9165C6.34597 42.9165 7.81088 42.5935 9.15641 41.9439C9.2529 41.8518 9.3494 41.7596 9.44132 41.6675C9.93669 41.1693 10.3605 40.6289 10.7087 40.0598C10.6879 40.0698 10.6675 40.0797 10.6467 40.0897C10.4096 40.3109 10.1621 40.5156 9.90633 40.7032C8.44392 41.9423 6.63504 42.5607 4.82492 42.5607C4.31 42.5607 3.79508 42.5105 3.28806 42.4105C2.83553 40.1258 3.40494 37.6801 4.99961 35.8055C5.18345 35.5556 5.38351 35.314 5.60021 35.082C5.61186 35.0567 5.62434 35.0313 5.6364 35.006Z" fill="#FFE5B9"/>
<path fill-rule="evenodd" clip-rule="evenodd" d="M5.59994 35.082C5.38324 35.314 5.18318 35.5556 4.99976 35.8051C5.13826 35.6419 5.28508 35.483 5.43939 35.329C5.46768 35.3012 5.49596 35.2733 5.52466 35.2455C5.5492 35.1912 5.57415 35.1364 5.59994 35.082ZM10.6464 40.0897C10.5907 40.1162 10.5345 40.142 10.4784 40.1673C10.4472 40.1997 10.4156 40.2316 10.384 40.2636C10.2292 40.418 10.0699 40.5646 9.90606 40.7032C10.1619 40.5156 10.4093 40.3109 10.6464 40.0897Z" fill="#FFC675"/>
<path fill-rule="evenodd" clip-rule="evenodd" d="M5.52457 35.2457C5.49587 35.2731 5.46759 35.3009 5.43972 35.3291C5.285 35.4831 5.13859 35.6421 4.99967 35.8052C3.40458 37.6802 2.83559 40.1255 3.28812 42.4106C3.79514 42.5107 4.31006 42.5605 4.82498 42.5605C6.63469 42.5605 8.44356 41.942 9.90639 40.7029C10.0698 40.5643 10.2291 40.4178 10.3839 40.2638C10.4159 40.2318 10.4475 40.1998 10.4787 40.1675C9.27958 40.7071 7.98438 40.9765 6.69167 40.9765C6.1651 40.9765 5.63895 40.9321 5.12029 40.8428C4.98594 40.8221 4.88113 40.7129 4.86033 40.583C4.54755 38.7927 4.77049 36.9264 5.52457 35.2457Z" fill="#FFC675"/>
<path fill-rule="evenodd" clip-rule="evenodd" d="M4.81851 43.7487C4.14803 43.7487 3.47256 43.6835 2.80001 43.5507C2.46976 43.4855 2.21105 43.2277 2.14575 42.8973C1.47486 39.5126 2.53048 36.0387 4.96908 33.605C5.5572 33.0176 6.20522 32.5079 6.89483 32.0887C7.28663 31.8496 7.79864 31.9737 8.0378 32.3659C8.27655 32.7574 8.15218 33.2684 7.75996 33.5066C7.18348 33.8574 6.64028 34.2849 6.14533 34.7789C4.23455 36.6858 3.33656 39.3553 3.6851 42.014C6.34955 42.3631 9.02439 41.4661 10.9356 39.5587C11.426 39.0697 11.8556 38.5247 12.2129 37.9394C12.4521 37.5476 12.9637 37.4226 13.3563 37.6621C13.7485 37.9004 13.8729 38.4114 13.6337 38.8028C13.2078 39.5014 12.6958 40.1502 12.1118 40.7326C10.1565 42.6848 7.53079 43.7487 4.81851 43.7487Z" fill="#2D3666"/>
<path fill-rule="evenodd" clip-rule="evenodd" d="M23.8679 39.718C22.3327 41.2501 20.4947 42.3036 18.5473 42.8731C18.4092 42.9113 18.2711 42.9495 18.1331 42.9877C18.5003 42.527 18.821 42.0425 19.0947 41.5349C19.2153 41.3207 19.3243 41.1003 19.4237 40.8774C20.4356 38.6346 20.5737 36.1017 19.8475 33.7801C22.5972 32.8789 25.171 31.5847 27.5031 29.9674C27.6707 32.248 27.212 34.5667 26.1297 36.6447C25.5503 37.7513 24.7971 38.7903 23.8679 39.718Z" fill="#78D5DD"/>
<path fill-rule="evenodd" clip-rule="evenodd" d="M11.9361 25.8845L11.8392 25.8579C8.76839 24.9306 5.34238 25.5088 2.70996 27.5959C2.79523 27.27 2.89255 26.9442 3.00402 26.6271C3.03938 26.527 3.07473 26.4274 3.113 26.3307C3.71859 24.7048 4.67731 23.1785 5.98624 21.8722C8.51883 19.3451 11.8683 18.1268 15.1828 18.2177C15.3742 18.2206 15.5713 18.2297 15.7622 18.2442C15.3921 18.7726 15.0418 19.3156 14.7095 19.8702C13.8477 21.2939 13.1036 22.7937 12.4889 24.3582L12.4772 24.3814C12.2859 24.8774 12.1037 25.3768 11.9361 25.8845Z" fill="#78D5DD"/>
<path fill-rule="evenodd" clip-rule="evenodd" d="M26.8076 35.0928C26.6184 35.6216 26.3925 36.1405 26.1297 36.6448C25.5503 37.7515 24.7974 38.7904 23.8678 39.7182C22.4262 41.1569 20.7176 42.1735 18.9021 42.7637C18.8547 42.8683 18.8052 42.9717 18.7536 43.075C20.7005 42.5055 22.5385 41.452 24.0737 39.9199C25.0033 38.9922 25.7562 37.9532 26.3356 36.8466C26.5364 36.2716 26.6937 35.6855 26.8076 35.0928ZM20.0213 39.1395C19.8629 39.2184 19.7027 39.2935 19.5418 39.3649C19.4919 39.3915 19.4415 39.4118 19.3887 39.4355C19.3388 39.6318 19.2801 39.8315 19.2124 40.0224C19.0651 40.4803 18.8829 40.9265 18.6654 41.3607C18.7956 41.3225 18.9241 41.2769 19.0539 41.2341C18.9615 41.4603 18.8609 41.6836 18.7507 41.9036C18.8064 41.8875 18.8617 41.868 18.9175 41.8493C18.9786 41.7455 19.0377 41.6409 19.0946 41.5346C19.2153 41.3204 19.3242 41.1004 19.4241 40.8771C19.6782 40.3138 19.8774 39.7319 20.0213 39.1395Z" fill="#9AE0E6"/>
<path fill-rule="evenodd" clip-rule="evenodd" d="M26.9365 30.4975C26.8391 30.5618 26.7414 30.6253 26.6432 30.6884C26.1458 32.9312 25.0224 35.0573 23.2796 36.7965C22.3001 37.7741 21.1971 38.5561 20.0212 39.1397C19.8773 39.7317 19.6781 40.3136 19.424 40.8773C19.3241 41.1007 19.2152 41.3207 19.0945 41.5348C19.0376 41.6407 18.9785 41.7457 18.9174 41.8495C18.9394 41.842 18.9619 41.8345 18.9843 41.8275C18.8882 42.0657 18.7838 42.3007 18.6682 42.5319C18.7988 42.4937 18.9273 42.4476 19.0567 42.4053C19.0076 42.5257 18.956 42.6452 18.902 42.7635C20.7175 42.1737 22.4261 41.1567 23.8677 39.718C24.7973 38.7902 25.5502 37.7513 26.1296 36.6446C26.3924 36.1403 26.6183 35.6214 26.8075 35.0926C26.9964 34.1092 27.0658 33.1076 27.0172 32.1097C27.0392 31.6207 27.0355 31.1305 27.0001 30.6415L26.9423 30.6801C26.9406 30.6191 26.9385 30.5585 26.9365 30.4975Z" fill="#A8EFF3"/>
<path fill-rule="evenodd" clip-rule="evenodd" d="M15.1965 18.0898C13.7524 18.0898 12.3074 18.338 10.9315 18.8345C12.1984 18.4202 13.5186 18.2131 14.8375 18.2131C14.9527 18.2131 15.0679 18.2148 15.1827 18.2177C15.2738 18.2193 15.3662 18.2218 15.4585 18.226C15.4859 18.182 15.5138 18.1384 15.5417 18.0944C15.4269 18.0915 15.3113 18.0898 15.1965 18.0898Z" fill="#9AE0E6"/>
<path fill-rule="evenodd" clip-rule="evenodd" d="M14.8377 18.213C13.5188 18.213 12.1986 18.4201 10.9317 18.8344C9.25759 19.4384 7.68663 20.4097 6.34525 21.7488C5.03632 23.0551 4.07761 24.5814 3.4716 26.2073C3.53482 26.1612 3.59929 26.1189 3.66334 26.0749C3.49739 26.419 3.34516 26.7681 3.21289 27.123C3.76566 26.7183 4.35129 26.3804 4.95397 26.1019C5.31583 25.6112 5.72178 25.1422 6.16848 24.6955C8.3571 22.5117 11.1534 21.3042 14.0146 21.0759C14.3972 20.3698 14.8077 19.6804 15.2445 19.0096C15.2187 19.0092 15.1929 19.0092 15.1675 19.0092C15.1409 19.0092 15.1147 19.0092 15.0881 19.0092C15.0635 19.0096 15.0386 19.0096 15.0136 19.0096C15.0032 19.0096 14.9933 19.0096 14.9829 19.0096C15.138 18.7456 15.2961 18.4841 15.4583 18.2259C15.3659 18.2221 15.274 18.2192 15.1829 18.2176C15.0677 18.2147 14.9529 18.213 14.8377 18.213Z" fill="#48BBC7"/>
<path fill-rule="evenodd" clip-rule="evenodd" d="M18.1315 43.8164C17.8541 43.8164 17.5891 43.6777 17.4331 43.4374C17.2389 43.1381 17.258 42.7483 17.4805 42.4694C19.5032 39.9327 20.0289 36.4758 18.8519 33.4486C18.6859 33.021 18.898 32.5403 19.3264 32.3747C19.7549 32.2083 20.2369 32.4208 20.4029 32.8479C21.4876 35.6382 21.3474 38.7369 20.0988 41.3872C21.2709 40.821 22.3478 40.0593 23.279 39.1299C25.9339 36.48 27.158 32.6881 26.5528 28.9859C26.4788 28.5334 26.7865 28.1067 27.2399 28.0332C27.6929 27.9598 28.1213 28.2665 28.1949 28.7186C28.8857 32.9463 27.4878 37.2774 24.4557 40.3038C22.7616 41.9941 20.6462 43.1999 18.3382 43.7906C18.2696 43.8076 18.2001 43.8164 18.1315 43.8164Z" fill="#2D3666"/>
<path fill-rule="evenodd" clip-rule="evenodd" d="M2.71141 28.4275C2.55461 28.4275 2.39739 28.3835 2.2593 28.2942C1.959 28.1004 1.81675 27.7368 1.90576 27.3914C2.49721 25.0876 3.70507 22.9761 5.39915 21.2858C8.43127 18.2593 12.7715 16.865 17.0077 17.5537C17.4611 17.6276 17.7689 18.0543 17.6948 18.5067C17.6208 18.9596 17.192 19.2668 16.7399 19.1925C13.0298 18.5885 9.23027 19.8101 6.5754 22.4597C5.64413 23.3891 4.88048 24.4638 4.31316 25.6343C6.96886 24.387 10.0738 24.2471 12.8697 25.3301C13.2981 25.4961 13.5106 25.9768 13.3442 26.4043C13.1783 26.8319 12.6962 27.0452 12.2678 26.8779C9.23526 25.7036 5.7714 26.2279 3.22966 28.2465C3.07868 28.3669 2.89525 28.4275 2.71141 28.4275Z" fill="#2D3666"/>
<path fill-rule="evenodd" clip-rule="evenodd" d="M31.6354 26.5244C28.3 29.853 24.1827 32.4005 19.5826 33.8683L11.8475 26.1487C15.7211 14.0882 27.0473 5.35584 40.4202 5.35293C40.4202 13.6183 37.0645 21.1062 31.6354 26.5244Z" fill="#E8F3FF"/>
<path fill-rule="evenodd" clip-rule="evenodd" d="M38.9851 14.6439L38.9934 14.6522C37.5252 19.239 34.9714 23.3484 31.6356 26.6775C31.436 26.8809 31.2239 27.0718 31.0201 27.2669L30.9826 27.296C30.3546 27.8896 29.7016 28.4541 29.0236 28.9896L28.9363 29.056C27.8133 29.9401 26.6237 30.7413 25.3759 31.4594C25.3385 31.4801 25.2969 31.5009 25.2595 31.5258C24.5066 31.9533 23.7372 32.3477 22.9427 32.713L22.9011 32.7337C22.3771 32.9703 21.8405 33.1986 21.2998 33.4062L21.2665 33.4186C20.0271 33.9001 18.746 34.2986 17.4358 34.6141C16.945 34.7345 16.4459 34.8382 15.9468 34.9337L12.6859 31.6794C14.0876 31.5756 15.456 31.3764 16.7953 31.0858C18.3301 30.7496 19.8233 30.3013 21.2665 29.7409L21.2998 29.7284C21.8405 29.5167 22.3771 29.2926 22.9011 29.0518L22.9427 29.0311C23.7372 28.6699 24.5066 28.2715 25.2595 27.8439C25.2969 27.8232 25.3385 27.8024 25.3759 27.7775C26.6237 27.0635 27.8133 26.2582 28.9363 25.3741L29.0236 25.3077C29.7016 24.7722 30.3546 24.2077 30.9826 23.6182L31.0201 23.585C31.2239 23.3899 31.436 23.199 31.6356 22.9998C34.9714 19.6707 37.5252 15.5613 38.9934 10.9703L38.9851 10.962C39.5508 9.21032 39.9584 7.38391 40.1872 5.50768C40.262 5.50353 40.341 5.50353 40.4159 5.50353C40.4159 8.69145 39.9126 11.759 38.9851 14.6439Z" fill="white"/>
<path fill-rule="evenodd" clip-rule="evenodd" d="M36.9702 9.11705C26.1993 10.613 17.2131 17.6813 13.0351 27.3086L11.9745 26.2501C15.19 16.2318 23.4225 8.46244 33.7247 5.87807L36.9702 9.11705Z" fill="#B8DAF2"/>
<path fill-rule="evenodd" clip-rule="evenodd" d="M39.5791 12.4091L39.1494 12.3037L33.4558 6.62105L33.3497 6.19267C35.6174 5.6435 37.9848 5.35293 40.4201 5.35293C40.4201 7.78331 40.129 10.1464 39.5791 12.4091Z" fill="#78D5DD"/>
<path fill-rule="evenodd" clip-rule="evenodd" d="M35.2415 5.79841C35.237 5.79986 35.2324 5.8013 35.2278 5.80274C35.2324 5.8013 35.237 5.79986 35.2415 5.79841ZM35.1987 5.81141C34.7803 5.93921 34.3648 6.08144 33.9521 6.23812V6.23885C34.3652 6.08144 34.7798 5.93921 35.1987 5.81141ZM40.4094 6.41646C40.4078 6.53343 40.4057 6.65112 40.4036 6.76809C40.4036 6.7782 40.4032 6.7883 40.4032 6.79841C40.4057 6.67134 40.4078 6.54426 40.4094 6.41646Z" fill="#9AE0E6"/>
<path fill-rule="evenodd" clip-rule="evenodd" d="M36.3497 5.62731C35.9783 5.69625 35.6089 5.77489 35.2417 5.86207C35.2371 5.86321 35.2325 5.86434 35.2279 5.86548C35.2179 5.86776 35.2084 5.87004 35.1988 5.87232C34.78 5.97318 34.3649 6.08543 33.9523 6.21021L33.9527 6.21192C34.7409 5.97375 35.5399 5.77831 36.3497 5.62731ZM40.4121 6.22389C40.4117 6.23472 40.4117 6.24611 40.4112 6.25694C40.4117 6.24611 40.4117 6.23472 40.4121 6.22389ZM40.4112 6.26833C40.4092 6.38229 40.4067 6.49568 40.4042 6.60964C40.4037 6.61534 40.4037 6.62161 40.4037 6.62731C40.4058 6.53557 40.4079 6.44212 40.4096 6.35038C40.41 6.32303 40.4108 6.29568 40.4112 6.26833Z" fill="#8CD5E6"/>
<path fill-rule="evenodd" clip-rule="evenodd" d="M40.4041 6.34281C40.3858 6.89654 40.3529 7.44654 40.3047 7.99239C40.3525 7.45692 40.3854 6.91688 40.4033 6.37311C40.4033 6.3673 40.4037 6.3619 40.4037 6.35609C40.4037 6.35152 40.4041 6.34696 40.4041 6.34281Z" fill="#9AE0E6"/>
<path fill-rule="evenodd" clip-rule="evenodd" d="M40.42 5.35401C39.0392 5.35401 37.6807 5.44699 36.3498 5.62714C35.5399 5.73756 34.7409 5.87994 33.9528 6.05303L33.9731 6.12609L36.972 9.11892C38.0368 8.97363 39.1182 8.87401 40.2162 8.8408C40.2499 8.55937 40.2795 8.27669 40.3048 7.99235C40.3527 7.4465 40.3859 6.8965 40.4042 6.34277C40.4067 6.26016 40.4092 6.17714 40.4113 6.09454C40.4113 6.09163 40.4113 6.08873 40.4113 6.08582C40.4117 6.07794 40.4117 6.07005 40.4121 6.06216C40.4175 5.82639 40.42 5.59062 40.42 5.35401Z" fill="#48BBC7"/>
<path fill-rule="evenodd" clip-rule="evenodd" d="M16.3035 35.2917L10.4214 29.4214L12.1862 26.4863L19.2445 33.5304L16.3035 35.2917Z" fill="#E8F3FF"/>
<path fill-rule="evenodd" clip-rule="evenodd" d="M31.5969 20.6157C29.8105 22.399 26.9136 22.399 25.1267 20.6157C23.3399 18.8329 23.3399 15.9418 25.1267 14.1585C26.9136 12.3753 29.8105 12.3753 31.5969 14.1585C33.3838 15.9418 33.3838 18.8329 31.5969 20.6157Z" fill="#78D5DD"/>
<path fill-rule="evenodd" clip-rule="evenodd" d="M28.0065 13.1333C27.0071 13.1333 26.008 13.5143 25.2448 14.276C23.7216 15.7994 23.7216 18.2651 25.2448 19.7889C25.486 20.0297 25.7522 20.2318 26.0363 20.3979C25.1558 18.9068 25.3583 16.9509 26.6431 15.672C27.4047 14.9099 28.4037 14.5293 29.4036 14.5297C30.087 14.5297 30.7708 14.7073 31.3789 15.0627C31.2121 14.7829 31.01 14.5168 30.7683 14.276C30.0051 13.5143 29.006 13.1333 28.0065 13.1333Z" fill="#48BBC7"/>
<path fill-rule="evenodd" clip-rule="evenodd" d="M39.1513 13.133C38.9384 13.133 38.7254 13.0521 38.5632 12.8898L32.6279 6.96641C32.3031 6.64222 32.3031 6.11671 32.6279 5.79252C32.9523 5.46833 33.4793 5.46833 33.8042 5.79252L39.7395 11.7159C40.0643 12.0401 40.0643 12.5656 39.7395 12.8898C39.5768 13.0521 39.3643 13.133 39.1513 13.133Z" fill="#2D3666"/>
<path fill-rule="evenodd" clip-rule="evenodd" d="M12.8004 25.9248L19.8084 32.9191C24.0105 31.4974 27.8874 29.0907 31.0476 25.9368C35.6761 21.3176 38.6387 15.2124 39.3899 8.74525C39.4893 7.91672 39.5517 7.06329 39.5762 6.19615C37.7395 6.24887 35.9115 6.47219 34.1305 6.86238C24.1977 9.04204 16.0679 16.3236 12.8004 25.9248ZM19.5821 34.6974C19.365 34.6974 19.152 34.6123 18.994 34.4541L11.2618 26.7371C11.0414 26.5175 10.9628 26.1929 11.0576 25.8969C14.3946 15.498 23.0988 7.58298 33.7736 5.24061C35.9443 4.76491 38.1804 4.52374 40.4201 4.52374C40.8793 4.52374 41.252 4.89566 41.252 5.35393C41.252 6.57555 41.1813 7.78181 41.042 8.93993C40.2484 15.7736 37.1164 22.2283 32.2238 27.1107C28.7575 30.5705 24.473 33.1802 19.835 34.6579C19.7518 34.6845 19.6665 34.6974 19.5821 34.6974Z" fill="#2D3666"/>
<path fill-rule="evenodd" clip-rule="evenodd" d="M29.2442 17.3369C29.0313 17.3369 28.8183 17.2559 28.6561 17.0936C28.4935 16.9317 28.2302 16.9313 28.0676 17.0936C27.7432 17.4178 27.2162 17.4178 26.8913 17.0936C26.5665 16.7694 26.5665 16.2439 26.8913 15.9197C27.7024 15.1103 29.0217 15.1103 29.8324 15.9197C30.1572 16.2439 30.1572 16.7694 29.8324 17.0936C29.6702 17.2559 29.4572 17.3369 29.2442 17.3369Z" fill="white"/>
<path fill-rule="evenodd" clip-rule="evenodd" d="M13.1115 27.7785L11.4756 30.4912L10.5839 29.5987L12.2592 26.8226L13.1115 27.7785Z" fill="#B8DAF2"/>
<path fill-rule="evenodd" clip-rule="evenodd" d="M11.4706 29.2925L16.4338 34.2459L17.9033 33.3659L12.3519 27.8256L11.4706 29.2925ZM16.3049 36.1208C16.0895 36.1208 15.8765 36.0378 15.7164 35.8776L9.83513 30.0086C9.56519 29.7392 9.51362 29.3212 9.70994 28.9945L11.4731 26.0598C11.6049 25.8406 11.8308 25.6941 12.0849 25.6625C12.3403 25.6318 12.594 25.719 12.7749 25.8996L19.8332 32.9437C20.0146 33.1243 20.1019 33.3783 20.0707 33.6319C20.0395 33.8856 19.8927 34.111 19.6731 34.2425L16.7321 36.003C16.5994 36.0822 16.4517 36.1208 16.3049 36.1208Z" fill="#2D3666"/>
<path fill-rule="evenodd" clip-rule="evenodd" d="M21.0092 24.7251C20.369 24.0863 19.3238 24.1124 18.7166 24.7824L9.21466 35.2631C8.90229 35.608 8.9156 36.1369 9.24502 36.4656C9.57443 36.7944 10.1043 36.8077 10.45 36.4959L20.9518 27.0131C21.6231 26.4071 21.6493 25.3639 21.0092 24.7251Z" fill="#78D5DD"/>
<path fill-rule="evenodd" clip-rule="evenodd" d="M19.8907 25.0925C19.8841 25.0925 19.8778 25.093 19.8712 25.093C19.6641 25.0984 19.4732 25.1859 19.3338 25.3395L9.8315 35.8202C9.81652 35.8368 9.81735 35.863 9.83358 35.8792C9.84896 35.895 9.87475 35.8954 9.89181 35.8804L20.394 26.3976C20.5479 26.2585 20.6357 26.068 20.6407 25.8609C20.6457 25.6537 20.5679 25.4587 20.4211 25.3121C20.2788 25.1702 20.0912 25.0925 19.8907 25.0925ZM9.86394 37.5524C9.42638 37.5524 8.98965 37.3847 8.65691 37.0531C8.01347 36.4105 7.98768 35.3794 8.59785 34.7061L18.0998 24.2254C18.5411 23.7381 19.1716 23.4496 19.8296 23.433C20.4951 23.4185 21.1319 23.6733 21.5977 24.1382C22.0627 24.6023 22.3202 25.2453 22.304 25.9016C22.2877 26.5582 21.9983 27.1879 21.5104 27.6288L11.0082 37.1116C10.6821 37.4059 10.2724 37.5524 9.86394 37.5524Z" fill="#2D3666"/>
<path fill-rule="evenodd" clip-rule="evenodd" d="M28.362 13.6513C27.3621 13.6513 26.4221 14.0402 25.7151 14.7455C25.008 15.4511 24.6187 16.3893 24.6187 17.3871C24.6187 18.385 25.008 19.3231 25.7151 20.0288C27.175 21.4854 29.5495 21.4854 31.009 20.0288C31.7157 19.3231 32.1054 18.385 32.1054 17.3871C32.1054 16.3893 31.7157 15.4511 31.009 14.7455C30.3019 14.0402 29.3619 13.6513 28.362 13.6513ZM28.362 22.7809C26.9774 22.7809 25.5928 22.255 24.5388 21.2027C23.5173 20.1836 22.955 18.8288 22.955 17.3871C22.955 15.9459 23.5173 14.5906 24.5388 13.5716C25.5599 12.5525 26.9175 11.9909 28.362 11.9909C29.8061 11.9909 31.1642 12.5525 32.1853 13.5716C33.2064 14.5906 33.7691 15.9459 33.7691 17.3871C33.7691 18.8288 33.2064 20.1836 32.1853 21.2027C31.1313 22.255 29.7467 22.7809 28.362 22.7809Z" fill="#2D3666"/>
<path fill-rule="evenodd" clip-rule="evenodd" d="M38.2654 30.7844L38.2442 30.8483C38.203 30.972 38.1048 31.0696 37.9813 31.1107L37.9172 31.1322L37.9813 31.1534C38.1048 31.1949 38.203 31.2925 38.2442 31.4162L38.2654 31.4801L38.287 31.4162C38.3282 31.2925 38.4259 31.1949 38.5499 31.1534L38.6139 31.1322L38.5499 31.1107C38.4259 31.0696 38.3282 30.972 38.287 30.8483L38.2654 30.7844Z" fill="#9AE0E6"/>
<path fill-rule="evenodd" clip-rule="evenodd" d="M38.2656 29.0568C38.0859 29.0568 37.9274 29.1705 37.8708 29.3403L37.5206 30.3888L36.4704 30.7383C36.2995 30.7952 36.1859 30.9529 36.1859 31.1322C36.1859 31.3116 36.2999 31.4693 36.4704 31.5258L37.5206 31.8757L37.8708 32.9238C37.9274 33.094 38.0859 33.2077 38.2656 33.2077C38.4452 33.2077 38.6033 33.094 38.6599 32.9238L39.0101 31.8757L40.0607 31.5258C40.2312 31.4693 40.3452 31.3116 40.3452 31.1322C40.3452 30.9529 40.2312 30.7952 40.0607 30.7383L39.0101 30.3888L38.6599 29.3403C38.6033 29.1705 38.4452 29.0568 38.2656 29.0568ZM38.2439 30.8483L38.2656 30.7844L38.2868 30.8483C38.3279 30.972 38.4261 31.0696 38.5496 31.1111L38.6137 31.1322L38.5496 31.1534C38.4261 31.1949 38.3279 31.2925 38.2868 31.4162L38.2656 31.4801L38.2439 31.4162C38.2028 31.2925 38.105 31.1949 37.9811 31.1534L37.917 31.1322L37.9811 31.1111C38.105 31.0696 38.2028 30.972 38.2439 30.8483Z" fill="#9AE0E6"/>
<path fill-rule="evenodd" clip-rule="evenodd" d="M41.177 22.4153C40.7178 22.4153 40.3451 22.7868 40.3451 23.2454C40.3451 23.7037 40.7178 24.0756 41.177 24.0756C41.6366 24.0756 42.0088 23.7037 42.0088 23.2454C42.0088 22.7868 41.6366 22.4153 41.177 22.4153Z" fill="#9AE0E6"/>
<path fill-rule="evenodd" clip-rule="evenodd" d="M31.1947 38.1886C30.7355 38.1886 30.3628 38.5601 30.3628 39.0188C30.3628 39.4771 30.7355 39.849 31.1947 39.849C31.6538 39.849 32.0265 39.4771 32.0265 39.0188C32.0265 38.5601 31.6538 38.1886 31.1947 38.1886Z" fill="#9AE0E6"/>
<path fill-rule="evenodd" clip-rule="evenodd" d="M45.3362 15.4164C45.3246 15.4292 45.3125 15.4417 45.2992 15.4533C45.3125 15.4649 45.3246 15.477 45.3362 15.4902C45.3479 15.477 45.3599 15.4649 45.3732 15.4533C45.3599 15.4417 45.3479 15.4292 45.3362 15.4164Z" fill="#9AE0E6"/>
<path fill-rule="evenodd" clip-rule="evenodd" d="M45.3363 13.7931C45.1566 13.7931 44.9982 13.9068 44.9416 14.0766L44.6954 14.8138L43.9567 15.0595C43.7866 15.116 43.6726 15.2741 43.6726 15.4535C43.6726 15.6328 43.7866 15.7905 43.9567 15.847L44.6954 16.0927L44.9416 16.8299C44.9982 17.0001 45.1566 17.1138 45.3363 17.1138C45.516 17.1138 45.6741 17.0001 45.7306 16.8299L45.9769 16.0927L46.7155 15.847C46.8861 15.7905 47 15.6328 47 15.4535C47 15.2741 46.8861 15.116 46.7155 15.0595L45.9769 14.8138L45.7306 14.0766C45.6741 13.9068 45.516 13.7931 45.3363 13.7931ZM45.2993 15.4535C45.3122 15.4418 45.3247 15.4294 45.3363 15.4165C45.348 15.4294 45.36 15.4418 45.3733 15.4535C45.36 15.4647 45.348 15.4771 45.3363 15.4904C45.3247 15.4771 45.3122 15.4647 45.2993 15.4535Z" fill="#9AE0E6"/>
<path fill-rule="evenodd" clip-rule="evenodd" d="M12.8937 4.1509C12.4341 4.1509 12.0619 4.52241 12.0619 4.98109C12.0619 5.43935 12.4341 5.81128 12.8937 5.81128C13.3529 5.81128 13.7256 5.43935 13.7256 4.98109C13.7256 4.52241 13.3529 4.1509 12.8937 4.1509Z" fill="#9AE0E6"/>
<path fill-rule="evenodd" clip-rule="evenodd" d="M9.56644 12.9259C9.55479 12.9387 9.54273 12.9512 9.52942 12.9628C9.54273 12.9744 9.55479 12.9865 9.56644 12.9998C9.57808 12.9865 9.59014 12.9744 9.60345 12.9628C9.59014 12.9512 9.57808 12.9387 9.56644 12.9259Z" fill="#9AE0E6"/>
<path fill-rule="evenodd" clip-rule="evenodd" d="M9.56655 11.3024C9.38687 11.3024 9.2284 11.4162 9.17183 11.5859L8.9256 12.3232L8.18691 12.5689C8.0168 12.6253 7.90283 12.7835 7.90283 12.9628C7.90283 13.1421 8.0168 13.2999 8.18691 13.3567L8.9256 13.6021L9.17183 14.3393C9.2284 14.5095 9.38687 14.6232 9.56655 14.6232C9.74623 14.6232 9.90428 14.5095 9.96085 14.3393L10.2071 13.6021L10.9458 13.3567C11.1163 13.2999 11.2303 13.1421 11.2303 12.9628C11.2303 12.7835 11.1163 12.6253 10.9458 12.5689L10.2071 12.3232L9.96085 11.5859C9.90428 11.4162 9.74623 11.3024 9.56655 11.3024ZM9.52953 12.9628C9.54242 12.9512 9.5549 12.9387 9.56655 12.9259C9.57778 12.9387 9.59026 12.9512 9.60357 12.9628C9.59026 12.9744 9.57778 12.9865 9.56655 12.9998C9.5549 12.9865 9.54242 12.9744 9.52953 12.9628Z" fill="#9AE0E6"/>
<path fill-rule="evenodd" clip-rule="evenodd" d="M0.83198 31.642C0.372379 31.642 0.00012207 32.0139 0.00012207 32.4722C0.00012207 32.9305 0.372379 33.3024 0.83198 33.3024C1.29117 33.3024 1.66384 32.9305 1.66384 32.4722C1.66384 32.0139 1.29117 31.642 0.83198 31.642Z" fill="#9AE0E6"/>
<path fill-rule="evenodd" clip-rule="evenodd" d="M24.9558 1.72783L24.9346 1.79175C24.893 1.91545 24.7953 2.013 24.6718 2.05409L24.6073 2.07568L24.6718 2.09685C24.7953 2.13794 24.893 2.23549 24.9346 2.35919L24.9558 2.42311L24.9771 2.35919C25.0187 2.23549 25.1164 2.13794 25.2403 2.09685L25.3044 2.07568L25.2403 2.05409C25.1164 2.013 25.0187 1.91545 24.9771 1.79175L24.9558 1.72783Z" fill="#9AE0E6"/>
<path fill-rule="evenodd" clip-rule="evenodd" d="M24.9559 -4.19617e-05C24.7762 -4.19617e-05 24.6181 0.113694 24.5616 0.283883L24.2109 1.33241L23.1607 1.68151C22.9902 1.73837 22.8762 1.89611 22.8762 2.07543C22.8762 2.25475 22.9902 2.41249 23.1607 2.46935L24.2114 2.81886L24.5616 3.86698C24.6181 4.03717 24.7762 4.1509 24.9559 4.1509C25.1355 4.1509 25.2936 4.03717 25.3506 3.86698L25.7008 2.81886L26.751 2.46935C26.9215 2.41249 27.0355 2.25475 27.0355 2.07543C27.0355 1.89611 26.9215 1.73837 26.751 1.68151L25.7004 1.332L25.3506 0.283883C25.2936 0.113694 25.1355 -4.19617e-05 24.9559 -4.19617e-05ZM24.9347 1.79151L24.9559 1.728L24.9771 1.79151C25.0187 1.9152 25.1164 2.01317 25.2404 2.05426L25.3044 2.07543L25.2404 2.09701C25.1164 2.13811 25.0187 2.23566 24.9771 2.35935L24.9559 2.42328L24.9347 2.35935C24.8931 2.23566 24.7953 2.13811 24.6718 2.09701L24.6073 2.07543L24.6718 2.05426C24.7953 2.01317 24.8931 1.9152 24.9347 1.79151Z" fill="#9AE0E6"/>
<path fill-rule="evenodd" clip-rule="evenodd" d="M38.2655 0.0948906C37.8063 0.0948906 37.4336 0.4664 37.4336 0.925079C37.4336 1.38334 37.8063 1.75527 38.2655 1.75527C38.7251 1.75527 39.0973 1.38334 39.0973 0.925079C39.0973 0.4664 38.7251 0.0948906 38.2655 0.0948906Z" fill="#9AE0E6"/>
</svg>