<svg width="266" height="266" viewBox="0 0 266 266" fill="none" xmlns="http://www.w3.org/2000/svg">
<g opacity="0.2">
<path fill-rule="evenodd" clip-rule="evenodd" d="M247.197 112.402C245.042 112.402 243.07 110.965 242.487 108.783C241.643 105.63 237.311 102.863 230.295 100.989C229.233 100.708 228.116 100.445 226.949 100.205C224.309 99.666 222.605 97.089 223.145 94.4461C223.684 91.8056 226.256 90.0925 228.904 90.6416C230.266 90.9222 231.569 91.2273 232.811 91.5567C243.649 94.4534 250.076 99.3976 251.914 106.257C252.612 108.861 251.067 111.538 248.463 112.234C248.041 112.349 247.614 112.402 247.197 112.402Z" fill="#2D3666"/>
<path fill-rule="evenodd" clip-rule="evenodd" d="M16.1928 169.419C16.0805 168.996 16.022 168.564 16.022 168.086C16.0171 166.868 16.4271 165.243 17.5521 163.24C19.4897 159.738 23.5944 155.33 29.5562 150.764C38.4904 143.883 51.4951 136.542 67.2697 129.636C83.0491 122.722 101.611 116.214 121.761 110.813C122.095 110.725 122.407 110.642 122.744 110.552C125.346 109.854 126.89 107.177 126.192 104.573C125.497 101.969 122.817 100.425 120.216 101.122C119.882 101.21 119.567 101.296 119.232 101.386C87.8444 109.803 60.1975 120.824 40.123 132.232C30.0809 137.948 21.9277 143.739 16.0561 149.564C13.1228 152.482 10.7508 155.416 9.0352 158.469C7.33182 161.509 6.26538 164.733 6.2605 168.086C6.2605 169.382 6.424 170.68 6.76321 171.944C7.46116 174.548 10.1382 176.093 12.7421 175.397C15.346 174.7 16.8907 172.022 16.1928 169.419Z" fill="#2D3666"/>
<path fill-rule="evenodd" clip-rule="evenodd" d="M142.008 226.03C119.205 229.366 97.178 223.602 79.583 211.505C79.1071 211.18 78.6313 210.829 78.1578 210.478L78.1359 210.451C76.4789 209.296 74.8536 208.074 73.2868 206.758C72.706 206.273 72.1228 205.787 71.5444 205.277C56.3043 191.958 45.5472 173.342 42.4113 151.767C35.4099 103.741 68.6721 59.1504 116.672 52.1709C134.098 49.628 151.071 52.3881 165.97 59.2284C169.535 60.8781 172.973 62.7572 176.29 64.8413C179.15 66.652 181.915 68.6239 184.536 70.7763C190.417 75.5228 195.693 81.0087 200.157 87.1121C208.444 98.3353 214.123 111.682 216.268 126.434C223.269 174.46 190.007 219.051 142.008 226.03Z" fill="#78D5DD"/>
<path fill-rule="evenodd" clip-rule="evenodd" d="M131.504 49.7222C123.899 49.7222 116.171 50.7081 108.476 52.7727C95.1251 56.3454 83.3088 62.7855 73.5059 71.2536C85.4734 61.3847 100.203 54.5664 116.671 52.1724C120.971 51.5452 125.247 51.2401 129.468 51.2401C142.351 51.2377 154.748 54.0758 165.969 59.2275C167.755 60.0547 169.51 60.9382 171.233 61.8777C168.944 59.9327 166.552 58.1 164.109 56.3918C162.335 55.5547 160.537 54.7665 158.714 54.0295C150.031 51.2157 140.862 49.7222 131.504 49.7222Z" fill="#9AE0E6"/>
<path fill-rule="evenodd" clip-rule="evenodd" d="M129.468 51.2394C125.246 51.2394 120.971 51.5445 116.671 52.1716C100.203 54.5656 85.4732 61.3865 73.5056 71.2529C48.5895 92.7769 36.7 127.401 45.8026 161.351C51.491 182.604 64.4689 199.99 81.3123 211.54C81.9517 211.984 82.5935 212.401 83.2329 212.821C84.9582 213.953 86.7299 214.988 88.5285 215.947C80.9926 206.64 75.2309 195.68 71.9291 183.393C59.2709 136.084 87.3474 87.4715 134.629 74.789C142.309 72.7317 150.023 71.7483 157.615 71.7483C166.759 71.7483 175.723 73.1734 184.22 75.87C183.713 75.1428 183.195 74.4253 182.668 73.7176L182.651 73.7054C182.653 73.7054 182.656 73.7054 182.661 73.7054C182.358 73.3003 182.051 72.8952 181.741 72.4926C181.389 72.2022 181.035 71.9166 180.682 71.636C180.85 71.6921 181.021 71.7361 181.192 71.7849C181.121 71.6946 181.048 71.6043 180.977 71.514C180.281 70.9185 179.569 70.3548 178.859 69.7886C179.081 69.8374 179.278 69.8887 179.476 69.9619C179.203 69.7398 178.934 69.5178 178.637 69.2737L178.859 69.3445C178.046 68.6319 177.209 67.9657 176.372 67.2775L176.987 67.4752C176.077 66.6625 175.14 65.8987 174.18 65.1593C174.427 65.2081 174.649 65.2837 174.869 65.3569C173.785 64.4198 172.677 63.5096 171.545 62.6237C171.816 62.6969 172.111 62.7701 172.382 62.8702C172.001 62.5359 171.618 62.204 171.233 61.877C169.51 60.9374 167.755 60.054 165.969 59.2292C154.748 54.0751 142.351 51.2394 129.468 51.2394Z" fill="#48BBC7"/>
<path fill-rule="evenodd" clip-rule="evenodd" d="M74.7064 124.821C74.1671 124.821 73.6204 124.731 73.0835 124.543C70.5407 123.647 69.2082 120.858 70.1038 118.315C77.137 98.3746 93.5143 83.3908 113.918 78.2367C116.529 77.5754 119.187 79.1592 119.846 81.7728C120.505 84.3864 118.923 87.0415 116.307 87.7004C99.0832 92.0516 85.2512 104.71 79.3089 121.563C78.6012 123.567 76.7172 124.821 74.7064 124.821Z" fill="#2D3666"/>
<path fill-rule="evenodd" clip-rule="evenodd" d="M72.035 152.327C69.6507 152.327 67.5642 150.578 67.2104 148.15C66.8858 145.909 66.6759 143.63 66.5954 141.378C66.4929 138.683 68.5965 136.419 71.2907 136.321C73.9287 136.206 76.2495 138.325 76.3495 141.019C76.4179 142.922 76.5936 144.848 76.8693 146.741C77.2598 149.409 75.4124 151.886 72.7451 152.276C72.506 152.31 72.2692 152.327 72.035 152.327Z" fill="#2D3666"/>
<path fill-rule="evenodd" clip-rule="evenodd" d="M169.391 59.3324C170.791 60.5599 172.158 61.8313 173.485 63.1467C174.43 63.6958 175.365 64.2595 176.292 64.8427C179.15 66.6535 181.915 68.6253 184.538 70.7777C190.417 75.5242 195.693 81.0102 200.159 87.1135C208.444 98.3343 214.122 111.683 216.268 126.433C223.269 174.462 190.007 219.05 142.007 226.029C137.705 226.659 133.427 226.966 129.205 226.966C119.209 226.966 109.509 225.255 100.423 222.078C92.7533 221.458 85.2589 219.889 78.0964 217.454C80.4514 218.979 82.8552 220.377 85.3126 221.668C98.4759 228.608 113.313 232.425 128.641 232.425C136.621 232.425 144.736 231.39 152.813 229.221C202.467 215.928 231.949 164.876 218.632 115.195C214.545 99.9352 206.916 86.5913 196.803 75.8073C192.537 71.8246 187.908 68.2812 182.993 65.2039C178.649 62.8758 174.098 60.9089 169.391 59.3324Z" fill="#9AE0E6"/>
<path fill-rule="evenodd" clip-rule="evenodd" d="M173.486 63.1457C176.141 65.7716 178.643 68.5633 180.976 71.5137C181.1 71.6187 181.225 71.7261 181.347 71.8334C181.295 71.8163 181.244 71.7993 181.19 71.7846C181.376 72.0213 181.559 72.2556 181.742 72.4923C182.32 72.9706 182.896 73.4612 183.465 73.9517C183.196 73.8541 182.928 73.7808 182.66 73.7076C182.662 73.7101 182.664 73.7125 182.667 73.7174C183.77 74.6008 184.897 75.5062 185.952 76.4384C185.376 76.2432 184.8 76.0528 184.219 75.8698C190.278 84.5258 194.947 94.3678 197.839 105.159C211.131 154.816 181.674 205.893 131.993 219.185C123.93 221.347 115.828 222.38 107.855 222.38C105.363 222.38 102.884 222.277 100.424 222.079C109.51 225.254 119.21 226.965 129.206 226.965C133.428 226.965 137.706 226.66 142.008 226.03C190.008 219.049 223.27 174.461 216.268 126.434C214.123 111.682 208.444 98.3358 200.157 87.1126C195.694 81.0092 190.417 75.5233 184.536 70.7767C181.915 68.6243 179.15 66.6525 176.29 64.8418C175.365 64.261 174.431 63.6948 173.486 63.1457Z" fill="#A8EFF3"/>
<path fill-rule="evenodd" clip-rule="evenodd" d="M180.977 71.5128C181.047 71.603 181.121 71.6933 181.191 71.7861C181.243 71.8007 181.294 71.8154 181.347 71.8324C181.223 71.7251 181.101 71.6177 180.977 71.5128ZM181.743 72.4938C182.05 72.894 182.358 73.2991 182.66 73.7066C182.926 73.7799 183.195 73.8531 183.463 73.9507C182.897 73.4602 182.321 72.9721 181.743 72.4938ZM182.668 73.7164C183.195 74.4266 183.712 75.144 184.22 75.8688C184.798 76.0543 185.377 76.2422 185.95 76.4374C184.898 75.5076 183.771 74.5998 182.668 73.7164Z" fill="#88E6EC"/>
<path fill-rule="evenodd" clip-rule="evenodd" d="M129.334 56.1309C122.133 56.1309 114.917 57.0656 107.864 58.9544C63.674 70.7975 37.3546 116.384 49.1928 160.576C54.3152 179.692 66.1241 196.374 82.4428 207.548C102.468 221.261 127.39 225.522 150.815 219.247C195.007 207.404 221.327 161.818 209.486 117.626C203.207 94.2006 187.054 74.7509 165.169 64.2646C153.911 58.8714 141.651 56.1309 129.334 56.1309ZM129.32 231.842C110.81 231.842 92.5386 226.29 76.9276 215.604C58.6883 203.114 45.4908 184.467 39.7657 163.102C26.5316 113.711 55.9478 62.7614 105.338 49.5273C126.706 43.8046 149.453 45.9106 169.386 55.4622C193.846 67.1809 211.899 88.9172 218.913 115.1C232.147 164.491 202.733 215.44 153.34 228.675C145.421 230.798 137.346 231.842 129.32 231.842Z" fill="#2D3666"/>
<path fill-rule="evenodd" clip-rule="evenodd" d="M54.3708 189.541C28.8933 189.541 10.0928 184.372 6.7641 171.946C6.06615 169.342 7.61091 166.665 10.2148 165.967C12.8186 165.259 15.4933 166.813 16.1912 169.417C19.3588 181.229 66.8166 186.17 136.919 167.387C207.021 148.603 245.649 120.595 242.486 108.784C241.789 106.18 243.333 103.503 245.937 102.805C248.539 102.102 251.218 103.652 251.914 106.258C258.478 130.755 198.865 160.896 139.444 176.817C110.167 184.66 79.1185 189.541 54.3708 189.541Z" fill="#2D3666"/>
<path fill-rule="evenodd" clip-rule="evenodd" d="M236.716 56.1279C236.716 64.2153 230.159 70.7702 222.074 70.7702C213.986 70.7702 207.431 64.2153 207.431 56.1279C207.431 48.0406 213.986 41.4857 222.074 41.4857C230.159 41.4857 236.716 48.0406 236.716 56.1279Z" fill="#78D5DD"/>
<path fill-rule="evenodd" clip-rule="evenodd" d="M222.073 41.4857C222.103 41.4857 222.129 41.4857 222.159 41.4857C222.129 41.4857 222.103 41.4857 222.073 41.4857ZM222.186 41.4857C222.205 41.4857 222.227 41.4857 222.247 41.4857C222.227 41.4857 222.205 41.4857 222.186 41.4857ZM222.273 41.4882C222.295 41.4882 222.317 41.4882 222.339 41.4882C222.317 41.4882 222.295 41.4882 222.273 41.4882ZM222.361 41.4882C222.388 41.4882 222.417 41.4906 222.444 41.4906C222.417 41.4906 222.388 41.4882 222.361 41.4882ZM222.469 41.4906C222.488 41.4906 222.508 41.4931 222.53 41.4931C222.508 41.4931 222.488 41.4906 222.469 41.4906ZM222.561 41.4931C222.579 41.4955 222.598 41.4955 222.618 41.4955C222.598 41.4955 222.579 41.4955 222.561 41.4931ZM222.647 41.498C222.674 41.498 222.701 41.498 222.727 41.5004C222.701 41.498 222.674 41.498 222.647 41.498ZM222.757 41.5004C222.774 41.5028 222.793 41.5028 222.81 41.5053C222.791 41.5028 222.774 41.5028 222.757 41.5004ZM222.847 41.5053C222.862 41.5077 222.879 41.5077 222.893 41.5077C222.879 41.5077 222.862 41.5077 222.847 41.5053ZM222.935 41.5102C222.949 41.5126 222.964 41.5126 222.981 41.5126C222.964 41.5126 222.949 41.5126 222.935 41.5102ZM223.052 41.5175C223.064 41.5199 223.076 41.5199 223.089 41.5199C223.076 41.5199 223.064 41.5199 223.052 41.5175ZM223.14 41.5248C223.147 41.5248 223.157 41.5248 223.167 41.5272C223.157 41.5248 223.147 41.5248 223.14 41.5248ZM223.223 41.5297C223.225 41.5297 223.23 41.5297 223.233 41.5321C223.23 41.5297 223.225 41.5297 223.223 41.5297ZM223.428 41.5468C223.433 41.5492 223.438 41.5492 223.445 41.5492C223.438 41.5492 223.433 41.5492 223.428 41.5468ZM207.431 56.1279C207.431 56.1572 207.431 56.1841 207.431 56.2134C207.431 56.1841 207.431 56.1572 207.431 56.1279ZM207.431 56.2402C207.431 56.2597 207.431 56.2817 207.431 56.3012C207.431 56.2817 207.431 56.2597 207.431 56.2402ZM207.431 56.3281C207.434 56.35 207.434 56.372 207.434 56.394C207.434 56.372 207.434 56.35 207.431 56.3281ZM207.434 56.4159C207.434 56.4428 207.436 56.472 207.436 56.4989C207.436 56.472 207.434 56.4452 207.434 56.4159ZM207.436 56.5233C207.436 56.5428 207.438 56.5648 207.438 56.5843C207.438 56.5648 207.436 56.5428 207.436 56.5233ZM207.438 56.616C207.438 56.6331 207.441 56.6526 207.441 56.6722C207.441 56.6526 207.438 56.6331 207.438 56.616ZM207.441 56.7014C207.443 56.7283 207.443 56.7551 207.446 56.782C207.443 56.7551 207.443 56.7283 207.441 56.7014ZM207.446 56.8137C207.448 56.8308 207.448 56.8479 207.448 56.8649C207.448 56.8479 207.448 56.8308 207.446 56.8137ZM207.451 56.904C207.451 56.9162 207.453 56.9308 207.453 56.9455C207.453 56.9308 207.451 56.9162 207.451 56.904ZM207.456 56.9918C207.456 56.9992 207.458 57.0089 207.458 57.0187C207.458 57.0114 207.456 56.9992 207.456 56.9918ZM207.463 57.1187C207.465 57.1261 207.465 57.1334 207.465 57.1407C207.465 57.1334 207.465 57.1261 207.463 57.1187ZM207.47 57.1968C207.47 57.2042 207.47 57.2115 207.47 57.2164C207.47 57.2115 207.47 57.2042 207.47 57.1968Z" fill="#BBEAEE"/>
<path fill-rule="evenodd" clip-rule="evenodd" d="M222.073 41.4857C213.996 41.4857 207.431 48.0503 207.431 56.1279C207.431 56.1572 207.431 56.1841 207.431 56.2134C207.431 56.2231 207.431 56.2304 207.431 56.2402C207.431 56.2597 207.431 56.2817 207.431 56.3012C207.431 56.311 207.431 56.3207 207.431 56.3281C207.434 56.35 207.434 56.372 207.434 56.394C207.434 56.4013 207.434 56.4086 207.434 56.4159C207.434 56.4452 207.436 56.472 207.436 56.4989C207.436 56.5086 207.436 56.516 207.436 56.5233C207.436 56.5428 207.438 56.5648 207.438 56.5843C207.438 56.5941 207.438 56.6038 207.438 56.616C207.438 56.6331 207.441 56.6526 207.441 56.6722C207.441 56.6819 207.441 56.6917 207.441 56.7014C207.443 56.7283 207.443 56.7551 207.446 56.782C207.446 56.7917 207.446 56.8039 207.446 56.8137C207.448 56.8308 207.448 56.8479 207.448 56.8649C207.451 56.8771 207.451 56.8893 207.451 56.904C207.451 56.9162 207.453 56.9308 207.453 56.9455C207.453 56.9601 207.456 56.9748 207.456 56.9918C207.456 56.9992 207.458 57.0114 207.458 57.0187C207.46 57.0528 207.463 57.0846 207.463 57.1187C207.465 57.1261 207.465 57.1334 207.465 57.1407C207.468 57.1602 207.468 57.1797 207.47 57.1968C207.47 57.2042 207.47 57.2115 207.47 57.2164C207.478 57.3091 207.485 57.3994 207.495 57.4921C208.012 63.0952 211.69 67.7807 216.705 69.7452C216.046 68.0857 215.68 66.2799 215.68 64.3764C215.68 56.2744 222.22 49.7342 230.322 49.7342C232.225 49.7342 234.031 50.1002 235.691 50.7591C233.726 45.7466 229.043 42.069 223.445 41.5492C223.438 41.5492 223.433 41.5492 223.428 41.5468C223.364 41.5419 223.298 41.537 223.233 41.5321C223.23 41.5297 223.225 41.5297 223.223 41.5297C223.203 41.5297 223.186 41.5272 223.167 41.5272C223.157 41.5248 223.147 41.5248 223.14 41.5248C223.123 41.5224 223.106 41.5224 223.089 41.5199C223.076 41.5199 223.064 41.5199 223.052 41.5175C223.028 41.5175 223.006 41.515 222.981 41.5126C222.964 41.5126 222.949 41.5126 222.935 41.5102C222.92 41.5102 222.908 41.5102 222.893 41.5077C222.879 41.5077 222.862 41.5077 222.847 41.5053C222.835 41.5053 222.823 41.5053 222.81 41.5053C222.793 41.5028 222.774 41.5028 222.757 41.5004C222.747 41.5004 222.737 41.5004 222.727 41.5004C222.701 41.498 222.674 41.498 222.647 41.498C222.637 41.4955 222.627 41.4955 222.618 41.4955C222.598 41.4955 222.579 41.4955 222.561 41.4931C222.549 41.4931 222.539 41.4931 222.53 41.4931C222.508 41.4931 222.488 41.4906 222.469 41.4906C222.461 41.4906 222.454 41.4906 222.444 41.4906C222.417 41.4906 222.388 41.4882 222.361 41.4882C222.354 41.4882 222.347 41.4882 222.339 41.4882C222.317 41.4882 222.295 41.4882 222.273 41.4882C222.266 41.4882 222.256 41.4857 222.247 41.4857C222.227 41.4857 222.205 41.4857 222.186 41.4857C222.176 41.4857 222.169 41.4857 222.159 41.4857C222.129 41.4857 222.103 41.4857 222.073 41.4857Z" fill="#58C3CE"/>
<path fill-rule="evenodd" clip-rule="evenodd" d="M222.073 45.7569C216.356 45.7569 211.702 50.4107 211.702 56.1285C211.702 61.8462 216.356 66.5 222.073 66.5C227.791 66.5 232.445 61.8462 232.445 56.1285C232.445 50.4107 227.791 45.7569 222.073 45.7569ZM222.073 75.0413C211.646 75.0413 203.161 66.5561 203.161 56.1285C203.161 45.7008 211.646 37.2156 222.073 37.2156C232.501 37.2156 240.986 45.7008 240.986 56.1285C240.986 66.5561 232.501 75.0413 222.073 75.0413Z" fill="#2D3666"/>
<path fill-rule="evenodd" clip-rule="evenodd" d="M73.2108 243.82C73.1425 243.895 73.0717 243.969 72.9937 244.037C73.0717 244.105 73.1425 244.176 73.2108 244.254C73.2792 244.176 73.3499 244.105 73.428 244.037C73.3499 243.969 73.2792 243.895 73.2108 243.82Z" fill="#9AE0E6"/>
<path fill-rule="evenodd" clip-rule="evenodd" d="M73.2109 234.275C72.1567 234.275 71.2294 234.944 70.8975 235.944L69.4528 240.276L65.1187 241.721C64.1181 242.055 63.4495 242.982 63.4495 244.037C63.4495 245.091 64.1181 246.018 65.1187 246.35L69.4503 247.797L70.8975 252.129C71.2294 253.129 72.1567 253.798 73.2109 253.798C74.2652 253.798 75.1925 253.129 75.5244 252.129L76.9715 247.797L81.3032 246.35C82.3037 246.018 82.9724 245.091 82.9724 244.037C82.9724 242.982 82.3037 242.055 81.3032 241.721L76.9715 240.276L75.5244 235.944C75.1925 234.944 74.2652 234.275 73.2109 234.275ZM72.9937 244.037C73.0718 243.968 73.1426 243.898 73.2109 243.819C73.2793 243.898 73.35 243.968 73.4281 244.037C73.35 244.105 73.2793 244.176 73.2109 244.254C73.1426 244.176 73.0718 244.105 72.9937 244.037Z" fill="#9AE0E6"/>
<path fill-rule="evenodd" clip-rule="evenodd" d="M131.779 9.54428C131.711 9.61993 131.64 9.69314 131.562 9.76147C131.64 9.8298 131.711 9.90057 131.779 9.97867C131.848 9.90057 131.918 9.8298 131.996 9.76147C131.918 9.69314 131.848 9.61993 131.779 9.54428Z" fill="#9AE0E6"/>
<path fill-rule="evenodd" clip-rule="evenodd" d="M131.779 -0.000488281C130.725 -0.000488281 129.798 0.668172 129.466 1.66872L128.021 6.00281L123.687 7.44751C122.686 7.7794 122.018 8.70674 122.018 9.76098C122.018 10.8152 122.686 11.7426 123.687 12.0769L128.019 13.5216L129.466 17.8532C129.798 18.8538 130.725 19.5224 131.779 19.5224C132.834 19.5224 133.761 18.8538 134.095 17.8532L135.54 13.5216L139.874 12.0769C140.872 11.7426 141.541 10.8152 141.541 9.76098C141.541 8.70674 140.872 7.7794 139.874 7.44751L135.54 6.00037L134.095 1.66872C133.761 0.668172 132.834 -0.000488281 131.779 -0.000488281ZM131.562 9.76098C131.64 9.69265 131.711 9.62188 131.779 9.54379C131.848 9.62188 131.918 9.69265 131.996 9.76098C131.918 9.82931 131.848 9.90008 131.779 9.97817C131.711 9.90008 131.64 9.82931 131.562 9.76098Z" fill="#9AE0E6"/>
<path fill-rule="evenodd" clip-rule="evenodd" d="M12.2015 98.0107L12.0771 98.3866C11.833 99.1138 11.2595 99.6873 10.5323 99.9289L10.1565 100.056L10.5323 100.18C11.2595 100.424 11.833 100.995 12.0771 101.723L12.2015 102.101L12.326 101.723C12.57 100.995 13.1435 100.424 13.8707 100.18L14.2465 100.056L13.8707 99.9289C13.1435 99.6873 12.57 99.1138 12.326 98.3866L12.2015 98.0107Z" fill="#9AE0E6"/>
<path fill-rule="evenodd" clip-rule="evenodd" d="M12.2016 87.8527C11.1474 87.8527 10.22 88.5214 9.88812 89.5219L7.83089 95.6863L1.66897 97.7386C0.668416 98.073 -0.000244141 99.0003 -0.000244141 100.055C-0.000244141 101.109 0.668416 102.036 1.66897 102.37L7.83333 104.425L9.88812 110.59C10.22 111.588 11.1474 112.256 12.2016 112.256C13.2558 112.256 14.1832 111.588 14.5151 110.59L16.5698 104.425L22.7342 102.37C23.7348 102.036 24.4034 101.109 24.4034 100.055C24.4034 99.0003 23.7348 98.073 22.7342 97.7386L16.5698 95.6839L14.5151 89.5219C14.1832 88.5214 13.2558 87.8527 12.2016 87.8527ZM12.0771 98.3853L12.2016 98.012L12.326 98.3853C12.5701 99.1126 13.1436 99.6885 13.8708 99.9301L14.2466 100.055L13.8708 100.181C13.1436 100.423 12.5701 100.997 12.326 101.724L12.2016 102.1L12.0771 101.724C11.8331 100.997 11.2596 100.423 10.5324 100.181L10.1566 100.055L10.5324 99.9301C11.2596 99.6885 11.8331 99.1126 12.0771 98.3853Z" fill="#9AE0E6"/>
<path fill-rule="evenodd" clip-rule="evenodd" d="M61.0096 26.8445C58.313 26.8445 56.1289 29.0286 56.1289 31.7252C56.1289 34.4194 58.313 36.606 61.0096 36.606C63.7038 36.606 65.8904 34.4194 65.8904 31.7252C65.8904 29.0286 63.7038 26.8445 61.0096 26.8445Z" fill="#9AE0E6"/>
<path fill-rule="evenodd" clip-rule="evenodd" d="M129.34 256.238C126.646 256.238 124.459 258.425 124.459 261.119C124.459 263.815 126.646 266 129.34 266C132.034 266 134.22 263.815 134.22 261.119C134.22 258.425 132.034 256.238 129.34 256.238Z" fill="#9AE0E6"/>
<path fill-rule="evenodd" clip-rule="evenodd" d="M261.12 143.981C258.423 143.981 256.239 146.168 256.239 148.862C256.239 151.559 258.423 153.743 261.12 153.743C263.814 153.743 266 151.559 266 148.862C266 146.168 263.814 143.981 261.12 143.981Z" fill="#9AE0E6"/>
<path fill-rule="evenodd" clip-rule="evenodd" d="M173.266 26.8445C170.57 26.8445 168.386 29.0286 168.386 31.7252C168.386 34.4194 170.57 36.606 173.266 36.606C175.961 36.606 178.147 34.4194 178.147 31.7252C178.147 29.0286 175.961 26.8445 173.266 26.8445Z" fill="#9AE0E6"/>
<path fill-rule="evenodd" clip-rule="evenodd" d="M236.716 200.506L236.591 200.882C236.347 201.609 235.774 202.183 235.047 202.425L234.671 202.551L235.047 202.676C235.774 202.917 236.347 203.491 236.591 204.218L236.716 204.594L236.84 204.218C237.084 203.491 237.658 202.917 238.383 202.676L238.761 202.551L238.383 202.425C237.658 202.183 237.084 201.609 236.84 200.882L236.716 200.506Z" fill="#9AE0E6"/>
<path fill-rule="evenodd" clip-rule="evenodd" d="M236.716 190.348C235.662 190.348 234.734 191.017 234.4 192.017L232.345 198.182L226.183 200.234C225.183 200.568 224.514 201.496 224.514 202.55C224.514 203.604 225.183 204.532 226.183 204.866L232.345 206.921L234.4 213.085C234.734 214.083 235.662 214.752 236.716 214.752C237.77 214.752 238.697 214.083 239.029 213.085L241.084 206.921L247.248 204.866C248.249 204.532 248.918 203.604 248.918 202.55C248.918 201.496 248.249 200.568 247.248 200.234L241.084 198.179L239.029 192.017C238.697 191.017 237.77 190.348 236.716 190.348ZM236.591 200.881L236.716 200.507L236.84 200.881C237.084 201.608 237.658 202.184 238.383 202.426L238.761 202.55L238.383 202.677C237.658 202.918 237.084 203.492 236.84 204.219L236.716 204.595L236.591 204.219C236.347 203.492 235.774 202.918 235.047 202.677L234.671 202.55L235.047 202.426C235.774 202.184 236.347 201.608 236.591 200.881Z" fill="#9AE0E6"/>
</g>
</svg>