<svg width="469" height="184" viewBox="0 0 469 184" fill="none" xmlns="http://www.w3.org/2000/svg">
<g opacity="0.4">
<path fill-rule="evenodd" clip-rule="evenodd" d="M58.5 104C57.69 104 56.9775 104.514 56.7225 105.283L55.6125 108.611L52.2825 109.721C51.5138 109.977 51 110.69 51 111.5C51 112.31 51.5138 113.023 52.2825 113.278L55.6106 114.389L56.7225 117.717C56.9775 118.486 57.69 119 58.5 119C59.31 119 60.0225 118.486 60.2775 117.717L61.3894 114.389L64.7175 113.278C65.4862 113.023 66 112.31 66 111.5C66 110.69 65.4862 109.977 64.7175 109.721L61.3894 108.611L60.2775 105.283C60.0225 104.514 59.31 104 58.5 104ZM58.3331 111.5C58.3931 111.448 58.4475 111.393 58.5 111.333C58.5525 111.393 58.6069 111.448 58.6669 111.5C58.6069 111.553 58.5525 111.607 58.5 111.667C58.4475 111.607 58.3931 111.553 58.3331 111.5Z" fill="#9AE0E6"/>
<path fill-rule="evenodd" clip-rule="evenodd" d="M58.5 42C57.69 42 56.9775 42.5138 56.7225 43.2825L55.6125 46.6106L52.2825 47.7206C51.5138 47.9775 51 48.69 51 49.5C51 50.31 51.5138 51.0225 52.2825 51.2775L55.6106 52.3894L56.7225 55.7175C56.9775 56.4862 57.69 57 58.5 57C59.31 57 60.0225 56.4862 60.2775 55.7175L61.3894 52.3894L64.7175 51.2775C65.4862 51.0225 66 50.31 66 49.5C66 48.69 65.4862 47.9775 64.7175 47.7206L61.3894 46.6106L60.2775 43.2825C60.0225 42.5138 59.31 42 58.5 42ZM58.3331 49.5C58.3931 49.4475 58.4475 49.3931 58.5 49.3331C58.5525 49.3931 58.6069 49.4475 58.6669 49.5C58.6069 49.5525 58.5525 49.6069 58.5 49.6669C58.4475 49.6069 58.3931 49.5525 58.3331 49.5Z" fill="#9AE0E6"/>
<path fill-rule="evenodd" clip-rule="evenodd" d="M13 -6C12.2224 -6 11.5384 -5.5068 11.2936 -4.7688L9.7762 -0.222L5.2312 1.2918C4.4932 1.5384 4 2.2224 4 3C4 3.7776 4.4932 4.4616 5.2312 4.7082L9.778 6.2238L11.2936 10.7706C11.5384 11.5068 12.2224 12 13 12C13.7776 12 14.4616 11.5068 14.7064 10.7706L16.222 6.2238L20.7688 4.7082C21.5068 4.4616 22 3.7776 22 3C22 2.2224 21.5068 1.5384 20.7688 1.2918L16.222 -0.2238L14.7064 -4.7688C14.4616 -5.5068 13.7776 -6 13 -6ZM12.9082 1.7688L13 1.4934L13.0918 1.7688C13.2718 2.3052 13.6948 2.73 14.2312 2.9082L14.5084 3L14.2312 3.0936C13.6948 3.2718 13.2718 3.6948 13.0918 4.2312L13 4.5084L12.9082 4.2312C12.7282 3.6948 12.3052 3.2718 11.7688 3.0936L11.4916 3L11.7688 2.9082C12.3052 2.73 12.7282 2.3052 12.9082 1.7688Z" fill="#9AE0E6"/>
<path fill-rule="evenodd" clip-rule="evenodd" d="M101.5 84C99.568 84 98 85.568 98 87.5C98 89.4338 99.568 91 101.5 91C103.432 91 105 89.4338 105 87.5C105 85.568 103.432 84 101.5 84Z" fill="#9AE0E6"/>
<path fill-rule="evenodd" clip-rule="evenodd" d="M200.5 0C198.566 0 197 1.568 197 3.5C197 5.43375 198.566 7 200.5 7C202.432 7 204 5.43375 204 3.5C204 1.568 202.432 0 200.5 0Z" fill="#9AE0E6"/>
<path fill-rule="evenodd" clip-rule="evenodd" d="M119.5 0C117.566 0 116 1.568 116 3.5C116 5.43375 117.566 7 119.5 7C121.432 7 123 5.43375 123 3.5C123 1.568 121.432 0 119.5 0Z" fill="#9AE0E6"/>
<path fill-rule="evenodd" clip-rule="evenodd" d="M3.5 68C1.56625 68 0 69.568 0 71.5C0 73.4338 1.56625 75 3.5 75C5.432 75 7 73.4338 7 71.5C7 69.568 5.432 68 3.5 68Z" fill="#9AE0E6"/>
<path fill-rule="evenodd" clip-rule="evenodd" d="M182 35C181.222 35 180.538 35.4932 180.292 36.2312L178.776 40.778L174.231 42.2918C173.493 42.5384 173 43.2224 173 44C173 44.7776 173.493 45.4616 174.231 45.7082L178.776 47.2238L180.292 51.7706C180.538 52.5068 181.222 53 182 53C182.778 53 183.462 52.5068 183.706 51.7706L185.222 47.2238L189.769 45.7082C190.507 45.4616 191 44.7776 191 44C191 43.2224 190.507 42.5384 189.769 42.2918L185.222 40.7762L183.706 36.2312C183.462 35.4932 182.778 35 182 35ZM181.908 42.7688L182 42.4934L182.092 42.7688C182.272 43.3052 182.695 43.73 183.229 43.9082L183.508 44L183.229 44.0936C182.695 44.2718 182.272 44.6948 182.092 45.2312L182 45.5084L181.908 45.2312C181.728 44.6948 181.305 44.2718 180.769 44.0936L180.492 44L180.769 43.9082C181.305 43.73 181.728 43.3052 181.908 42.7688Z" fill="#9AE0E6"/>
<path fill-rule="evenodd" clip-rule="evenodd" d="M129 35C128.222 35 127.538 35.4932 127.292 36.2312L125.776 40.778L121.231 42.2918C120.493 42.5384 120 43.2224 120 44C120 44.7776 120.493 45.4616 121.231 45.7082L125.776 47.2238L127.292 51.7706C127.538 52.5068 128.222 53 129 53C129.778 53 130.462 52.5068 130.706 51.7706L132.222 47.2238L136.769 45.7082C137.507 45.4616 138 44.7776 138 44C138 43.2224 137.507 42.5384 136.769 42.2918L132.222 40.7762L130.706 36.2312C130.462 35.4932 129.778 35 129 35ZM128.908 42.7688L129 42.4934L129.092 42.7688C129.272 43.3052 129.695 43.73 130.229 43.9082L130.508 44L130.229 44.0936C129.695 44.2718 129.272 44.6948 129.092 45.2312L129 45.5084L128.908 45.2312C128.728 44.6948 128.305 44.2718 127.769 44.0936L127.492 44L127.769 43.9082C128.305 43.73 128.728 43.3052 128.908 42.7688Z" fill="#9AE0E6"/>
</g>
<g opacity="0.5">
<path fill-rule="evenodd" clip-rule="evenodd" d="M290.371 -140.546V-134.055C326.266 -134.052 358.705 -119.535 382.232 -96.0311C405.752 -72.5178 420.28 -40.1054 420.283 -4.23668C420.28 31.6321 405.752 64.0477 382.232 87.5578C358.705 111.061 326.266 125.578 290.371 125.582C254.477 125.578 222.041 111.061 198.511 87.5578C174.991 64.0477 160.463 31.6321 160.46 -4.23668C160.463 -40.1054 174.991 -72.5178 198.511 -96.0311C222.041 -119.535 254.477 -134.052 290.371 -134.055V-140.546V-147.037C211.447 -147.03 147.475 -83.1045 147.469 -4.23668C147.475 74.6311 211.447 138.56 290.371 138.563C369.296 138.56 433.271 74.6311 433.274 -4.23668C433.271 -83.1045 369.296 -147.03 290.371 -147.037V-140.546Z" fill="#2D3666"/>
<path fill-rule="evenodd" clip-rule="evenodd" d="M313.337 -27.1856C326.019 -14.5121 326.019 6.03809 313.337 18.7116C300.654 31.3851 280.089 31.3851 267.406 18.7116C254.724 6.03809 254.724 -14.5121 267.406 -27.1856C280.089 -39.8591 300.654 -39.8591 313.337 -27.1856Z" fill="#FFDCA1"/>
<path fill-rule="evenodd" clip-rule="evenodd" d="M290.371 -88.6179V-82.1269C311.917 -82.1237 331.362 -73.4194 345.49 -59.3146C359.604 -45.1969 368.315 -25.7664 368.318 -4.23604C368.315 17.2943 359.604 36.7248 345.49 50.8393C331.362 64.9473 311.917 73.6516 290.371 73.6549C268.826 73.6516 249.381 64.9473 235.253 50.8393C221.138 36.7248 212.428 17.2943 212.425 -4.23604C212.428 -25.7664 221.138 -45.1969 235.253 -59.3146C249.381 -73.4194 268.826 -82.1237 290.371 -82.1269V-88.6179V-95.1088C240.148 -95.1055 199.437 -54.427 199.433 -4.23604C199.437 45.9549 240.148 86.6334 290.371 86.6367C340.598 86.6334 381.306 45.9549 381.309 -4.23604C381.306 -54.427 340.598 -95.1055 290.371 -95.1088V-88.6179Z" fill="#2D3666"/>
<path fill-rule="evenodd" clip-rule="evenodd" d="M446.265 -4.23668C446.265 6.51875 437.542 15.236 426.779 15.236C416.016 15.236 407.292 6.51875 407.292 -4.23668C407.292 -14.9889 416.016 -23.7094 426.779 -23.7094C437.542 -23.7094 446.265 -14.9889 446.265 -4.23668Z" fill="#78D5DD"/>
<path fill-rule="evenodd" clip-rule="evenodd" d="M446.265 -4.23668H439.77C439.767 -0.630981 438.325 2.57553 435.963 4.94471C433.593 7.30415 430.387 8.74189 426.779 8.74514C423.17 8.74189 419.965 7.30415 417.591 4.94471C415.23 2.57553 413.791 -0.630981 413.788 -4.23668C413.791 -7.84238 415.23 -11.0456 417.591 -13.4148C419.965 -15.7775 423.17 -17.2153 426.779 -17.2185C430.387 -17.2153 433.593 -15.7775 435.963 -13.4148C438.325 -11.0456 439.767 -7.84238 439.77 -4.23668H446.265H452.761C452.754 -18.5783 441.131 -30.1971 426.779 -30.2003C412.427 -30.1971 400.8 -18.5783 400.796 -4.23668C400.8 10.105 412.427 21.7237 426.779 21.727C441.131 21.7237 452.754 10.105 452.761 -4.23668H446.265Z" fill="#2D3666"/>
<path fill-rule="evenodd" clip-rule="evenodd" d="M426.779 -17.2185C423.17 -17.2153 419.965 -15.7775 417.594 -13.4148C415.229 -11.0457 413.791 -7.84239 413.787 -4.23669C413.791 -0.630987 415.229 2.57552 417.594 4.9447C417.711 5.06154 417.831 5.17513 417.954 5.28872C417.233 0.42054 418.747 -4.73324 422.504 -8.50121C425.668 -11.6493 429.805 -13.2234 433.933 -13.2234C434.732 -13.2234 435.528 -13.1649 436.321 -13.0481C436.204 -13.1714 436.087 -13.2948 435.966 -13.4148C433.596 -15.7775 430.387 -17.2153 426.779 -17.2185Z" fill="#58C3CE"/>
<path fill-rule="evenodd" clip-rule="evenodd" d="M426.611 -20.561C422.471 -20.561 418.333 -18.9805 415.179 -15.8226C412.639 -13.3009 411.12 -10.1334 410.619 -6.8522L410.571 -6.33618C409.986 -1.56861 411.526 3.3937 415.179 7.0286C415.598 7.44727 416.037 7.85295 416.504 8.20671C417.427 8.94991 418.414 9.57953 419.447 10.0826L419.207 9.55032C418.752 8.57993 418.414 7.56086 418.187 6.5288C418.093 6.11663 418.015 5.70446 417.953 5.28904C417.829 5.17545 417.709 5.06186 417.592 4.94502C415.231 2.5726 413.789 -0.630669 413.786 -4.23637C413.789 -7.84207 415.231 -11.0453 417.592 -13.4178C419.963 -15.7772 423.169 -17.2149 426.777 -17.2182C430.385 -17.2149 433.594 -15.7772 435.965 -13.4178C436.085 -13.2944 436.202 -13.1711 436.319 -13.0478C436.728 -12.9861 437.138 -12.9082 437.544 -12.8173C438.771 -12.5415 439.966 -12.1228 441.1 -11.5549C440.6 -12.5902 439.966 -13.5735 439.226 -14.4953C438.869 -14.9658 438.466 -15.4007 438.044 -15.8226C434.89 -18.9805 430.752 -20.561 426.611 -20.561Z" fill="#21315F"/>
<path fill-rule="evenodd" clip-rule="evenodd" d="M290.601 -31.2986C283.388 -31.2986 276.171 -28.5464 270.679 -23.0421C266.253 -18.6478 263.606 -13.1273 262.732 -7.41204C262.703 -7.10372 262.648 -6.7954 262.648 -6.5098C261.634 1.79532 264.311 10.4412 270.679 16.7763C271.41 17.5098 272.17 18.2141 272.989 18.8307C274.593 20.1256 276.314 21.2259 278.117 22.0989C277.977 21.7873 277.808 21.479 277.695 21.1707C276.905 19.4798 276.314 17.7045 275.921 15.9033C273.836 6.80954 276.344 -3.16049 283.443 -10.2843C288.955 -15.7691 296.165 -18.5115 303.359 -18.5115C305.47 -18.5115 307.584 -18.2746 309.65 -17.804C311.793 -17.3237 313.878 -16.5934 315.85 -15.6068C314.976 -17.4113 313.878 -19.1281 312.582 -20.7346C311.962 -21.5492 311.257 -22.3087 310.523 -23.0421C305.031 -28.5464 297.815 -31.2986 290.601 -31.2986Z" fill="#FFCD83"/>
<path fill-rule="evenodd" clip-rule="evenodd" d="M290.372 -30.1873C283.717 -30.1873 277.062 -27.6591 271.999 -22.5962C261.869 -12.4737 261.869 4.00027 271.999 14.1228C282.129 24.2454 298.615 24.2454 308.744 14.1228C318.874 4.00027 318.874 -12.4737 308.744 -22.5962C303.681 -27.6591 297.026 -30.1873 290.372 -30.1873ZM290.372 34.7088C279.962 34.7088 270.174 30.6584 262.814 23.301C255.451 15.9468 251.398 6.16499 251.398 -4.23669C251.398 -14.6384 255.451 -24.4202 262.814 -31.7744C270.174 -39.1318 279.962 -43.1821 290.372 -43.1821C300.781 -43.1821 310.57 -39.1318 317.929 -31.7744C325.292 -24.4202 329.345 -14.6384 329.345 -4.23669C329.345 6.16499 325.292 15.9468 317.929 23.301C310.57 30.6584 300.781 34.7088 290.372 34.7088Z" fill="#2D3666"/>
<path fill-rule="evenodd" clip-rule="evenodd" d="M426.779 -17.2182C419.614 -17.2182 413.788 -11.3958 413.788 -4.23636C413.788 2.92311 419.614 8.74546 426.779 8.74546C433.943 8.74546 439.77 2.92311 439.77 -4.23636C439.77 -11.3958 433.943 -17.2182 426.779 -17.2182ZM426.779 21.7273C412.453 21.7273 400.796 10.0793 400.796 -4.23636C400.796 -18.5521 412.453 -30.2 426.779 -30.2C441.105 -30.2 452.761 -18.5521 452.761 -4.23636C452.761 10.0793 441.105 21.7273 426.779 21.7273Z" fill="#2D3666"/>
<path fill-rule="evenodd" clip-rule="evenodd" d="M452.761 77.4258L452.596 77.9256C452.271 78.8927 451.508 79.6554 450.54 79.9767L450.04 80.1455L450.54 80.3142C451.508 80.6323 452.271 81.3982 452.596 82.3653L452.761 82.8619L452.927 82.3653C453.252 81.3982 454.012 80.6323 454.983 80.3142L455.483 80.1455L454.983 79.9767C454.012 79.6554 453.252 78.8927 452.927 77.9256L452.761 77.4258Z" fill="#9AE0E6"/>
<path fill-rule="evenodd" clip-rule="evenodd" d="M452.761 63.9179C451.358 63.9179 450.124 64.8071 449.682 66.1378L446.944 74.3358L438.744 77.0652C437.412 77.5098 436.522 78.7431 436.522 80.1451C436.522 81.5472 437.412 82.7804 438.744 83.2251L446.944 85.9577L449.682 94.1525C450.124 95.4832 451.358 96.3724 452.761 96.3724C454.164 96.3724 455.398 95.4832 455.84 94.1525L458.575 85.9577L466.779 83.2251C468.11 82.7804 469 81.5472 469 80.1451C469 78.7431 468.11 77.5098 466.779 77.0652L458.575 74.3325L455.84 66.1378C455.398 64.8071 454.164 63.9179 452.761 63.9179ZM452.596 77.9252L452.761 77.4254L452.927 77.9252C453.252 78.8924 454.012 79.6583 454.983 79.9796L455.483 80.1451L454.983 80.3139C454.012 80.6352 453.252 81.3979 452.927 82.365L452.761 82.8648L452.596 82.365C452.271 81.3979 451.508 80.6352 450.54 80.3139L450.04 80.1451L450.54 79.9796C451.508 79.6583 452.271 78.8924 452.596 77.9252Z" fill="#9AE0E6"/>
<path fill-rule="evenodd" clip-rule="evenodd" d="M150.717 122.048C150.626 122.148 150.529 122.245 150.428 122.336C150.529 122.427 150.626 122.525 150.717 122.625C150.808 122.525 150.902 122.427 151.006 122.336C150.905 122.245 150.808 122.148 150.717 122.048Z" fill="#9AE0E6"/>
<path fill-rule="evenodd" clip-rule="evenodd" d="M150.717 109.355C149.314 109.355 148.08 110.244 147.635 111.572L145.712 117.335L139.944 119.257C138.616 119.698 137.726 120.935 137.726 122.337C137.726 123.739 138.616 124.972 139.944 125.413L145.712 127.335L147.635 133.099C148.08 134.429 149.314 135.318 150.717 135.318C152.12 135.318 153.354 134.429 153.796 133.099L155.722 127.338L161.487 125.413C162.818 124.972 163.708 123.739 163.708 122.337C163.708 120.935 162.818 119.698 161.487 119.257L155.719 117.335L153.796 111.572C153.354 110.244 152.12 109.355 150.717 109.355ZM150.428 122.337C150.529 122.246 150.626 122.148 150.717 122.048C150.808 122.148 150.902 122.246 151.006 122.337C150.902 122.428 150.808 122.522 150.717 122.626C150.626 122.522 150.529 122.428 150.428 122.337Z" fill="#9AE0E6"/>
<path fill-rule="evenodd" clip-rule="evenodd" d="M108.496 -4.23669C104.924 -4.23669 102.001 -1.31579 102.001 2.25421C102.001 5.82421 104.924 8.74512 108.496 8.74512C112.069 8.74512 114.992 5.82421 114.992 2.25421C114.992 -1.31579 112.069 -4.23669 108.496 -4.23669Z" fill="#9AE0E6"/>
<path fill-rule="evenodd" clip-rule="evenodd" d="M394.3 145.055C390.728 145.055 387.805 147.975 387.805 151.545C387.805 155.115 390.728 158.036 394.3 158.036C397.873 158.036 400.796 155.115 400.796 151.545C400.796 147.975 397.873 145.055 394.3 145.055Z" fill="#9AE0E6"/>
<path fill-rule="evenodd" clip-rule="evenodd" d="M270.884 171.018C267.312 171.018 264.389 173.939 264.389 177.509C264.389 181.079 267.312 184 270.884 184C274.457 184 277.38 181.079 277.38 177.509C277.38 173.939 274.457 171.018 270.884 171.018Z" fill="#9AE0E6"/>
</g>
</svg>