<svg width="204" height="138" viewBox="0 0 204 138" fill="none" xmlns="http://www.w3.org/2000/svg">
<path fill-rule="evenodd" clip-rule="evenodd" d="M58.5 123C57.69 123 56.9775 123.514 56.7225 124.283L55.6125 127.611L52.2825 128.721C51.5138 128.977 51 129.69 51 130.5C51 131.31 51.5138 132.023 52.2825 132.278L55.6106 133.389L56.7225 136.717C56.9775 137.486 57.69 138 58.5 138C59.31 138 60.0225 137.486 60.2775 136.717L61.3894 133.389L64.7175 132.278C65.4862 132.023 66 131.31 66 130.5C66 129.69 65.4862 128.977 64.7175 128.721L61.3894 127.611L60.2775 124.283C60.0225 123.514 59.31 123 58.5 123ZM58.3331 130.5C58.3931 130.448 58.4475 130.393 58.5 130.333C58.5525 130.393 58.6069 130.448 58.6669 130.5C58.6069 130.553 58.5525 130.607 58.5 130.667C58.4475 130.607 58.3931 130.553 58.3331 130.5Z" fill="#9AE0E6"/>
<path fill-rule="evenodd" clip-rule="evenodd" d="M58.5 61C57.69 61 56.9775 61.5138 56.7225 62.2825L55.6125 65.6106L52.2825 66.7206C51.5138 66.9775 51 67.69 51 68.5C51 69.31 51.5138 70.0225 52.2825 70.2775L55.6106 71.3894L56.7225 74.7175C56.9775 75.4862 57.69 76 58.5 76C59.31 76 60.0225 75.4862 60.2775 74.7175L61.3894 71.3894L64.7175 70.2775C65.4862 70.0225 66 69.31 66 68.5C66 67.69 65.4862 66.9775 64.7175 66.7206L61.3894 65.6106L60.2775 62.2825C60.0225 61.5138 59.31 61 58.5 61ZM58.3331 68.5C58.3931 68.4475 58.4475 68.3931 58.5 68.3331C58.5525 68.3931 58.6069 68.4475 58.6669 68.5C58.6069 68.5525 58.5525 68.6069 58.5 68.6669C58.4475 68.6069 58.3931 68.5525 58.3331 68.5Z" fill="#9AE0E6"/>
<path fill-rule="evenodd" clip-rule="evenodd" d="M80.5 -11C79.69 -11 78.9775 -10.4862 78.7225 -9.7175L77.6125 -6.3875L74.2825 -5.2775C73.5138 -5.0225 73 -4.31 73 -3.5C73 -2.69 73.5138 -1.9775 74.2825 -1.72062L77.6106 -0.610625L78.7225 2.7175C78.9775 3.48625 79.69 4 80.5 4C81.31 4 82.0225 3.48625 82.2794 2.7175L83.3894 -0.610625L86.7194 -1.72062C87.4862 -1.9775 88 -2.69 88 -3.5C88 -4.31 87.4862 -5.0225 86.7194 -5.2775L83.3894 -6.38938L82.2794 -9.7175C82.0225 -10.4862 81.31 -11 80.5 -11ZM80.3331 -3.5C80.3931 -3.5525 80.4475 -3.60687 80.5 -3.66687C80.5525 -3.60687 80.6069 -3.5525 80.6669 -3.5C80.6069 -3.4475 80.5525 -3.39313 80.5 -3.33313C80.4475 -3.39313 80.3931 -3.4475 80.3331 -3.5Z" fill="#9AE0E6"/>
<path fill-rule="evenodd" clip-rule="evenodd" d="M13 13C12.2224 13 11.5384 13.4932 11.2936 14.2312L9.7762 18.778L5.2312 20.2918C4.4932 20.5384 4 21.2224 4 22C4 22.7776 4.4932 23.4616 5.2312 23.7082L9.778 25.2238L11.2936 29.7706C11.5384 30.5068 12.2224 31 13 31C13.7776 31 14.4616 30.5068 14.7064 29.7706L16.222 25.2238L20.7688 23.7082C21.5068 23.4616 22 22.7776 22 22C22 21.2224 21.5068 20.5384 20.7688 20.2918L16.222 18.7762L14.7064 14.2312C14.4616 13.4932 13.7776 13 13 13ZM12.9082 20.7688L13 20.4934L13.0918 20.7688C13.2718 21.3052 13.6948 21.73 14.2312 21.9082L14.5084 22L14.2312 22.0936C13.6948 22.2718 13.2718 22.6948 13.0918 23.2312L13 23.5084L12.9082 23.2312C12.7282 22.6948 12.3052 22.2718 11.7688 22.0936L11.4916 22L11.7688 21.9082C12.3052 21.73 12.7282 21.3052 12.9082 20.7688Z" fill="#9AE0E6"/>
<path fill-rule="evenodd" clip-rule="evenodd" d="M101.5 103C99.568 103 98 104.568 98 106.5C98 108.434 99.568 110 101.5 110C103.432 110 105 108.434 105 106.5C105 104.568 103.432 103 101.5 103Z" fill="#9AE0E6"/>
<path fill-rule="evenodd" clip-rule="evenodd" d="M200.5 19C198.566 19 197 20.568 197 22.5C197 24.4338 198.566 26 200.5 26C202.432 26 204 24.4338 204 22.5C204 20.568 202.432 19 200.5 19Z" fill="#9AE0E6"/>
<path fill-rule="evenodd" clip-rule="evenodd" d="M119.5 19C117.566 19 116 20.568 116 22.5C116 24.4338 117.566 26 119.5 26C121.432 26 123 24.4338 123 22.5C123 20.568 121.432 19 119.5 19Z" fill="#9AE0E6"/>
<path fill-rule="evenodd" clip-rule="evenodd" d="M3.5 87C1.56625 87 0 88.568 0 90.5C0 92.4338 1.56625 94 3.5 94C5.432 94 7 92.4338 7 90.5C7 88.568 5.432 87 3.5 87Z" fill="#9AE0E6"/>
<path fill-rule="evenodd" clip-rule="evenodd" d="M182 54C181.222 54 180.538 54.4932 180.292 55.2312L178.776 59.778L174.231 61.2918C173.493 61.5384 173 62.2224 173 63C173 63.7776 173.493 64.4616 174.231 64.7082L178.776 66.2238L180.292 70.7706C180.538 71.5068 181.222 72 182 72C182.778 72 183.462 71.5068 183.706 70.7706L185.222 66.2238L189.769 64.7082C190.507 64.4616 191 63.7776 191 63C191 62.2224 190.507 61.5384 189.769 61.2918L185.222 59.7762L183.706 55.2312C183.462 54.4932 182.778 54 182 54ZM181.908 61.7688L182 61.4934L182.092 61.7688C182.272 62.3052 182.695 62.73 183.229 62.9082L183.508 63L183.229 63.0936C182.695 63.2718 182.272 63.6948 182.092 64.2312L182 64.5084L181.908 64.2312C181.728 63.6948 181.305 63.2718 180.769 63.0936L180.492 63L180.769 62.9082C181.305 62.73 181.728 62.3052 181.908 61.7688Z" fill="#9AE0E6"/>
<path fill-rule="evenodd" clip-rule="evenodd" d="M129 54C128.222 54 127.538 54.4932 127.292 55.2312L125.776 59.778L121.231 61.2918C120.493 61.5384 120 62.2224 120 63C120 63.7776 120.493 64.4616 121.231 64.7082L125.776 66.2238L127.292 70.7706C127.538 71.5068 128.222 72 129 72C129.778 72 130.462 71.5068 130.706 70.7706L132.222 66.2238L136.769 64.7082C137.507 64.4616 138 63.7776 138 63C138 62.2224 137.507 61.5384 136.769 61.2918L132.222 59.7762L130.706 55.2312C130.462 54.4932 129.778 54 129 54ZM128.908 61.7688L129 61.4934L129.092 61.7688C129.272 62.3052 129.695 62.73 130.229 62.9082L130.508 63L130.229 63.0936C129.695 63.2718 129.272 63.6948 129.092 64.2312L129 64.5084L128.908 64.2312C128.728 63.6948 128.305 63.2718 127.769 63.0936L127.492 63L127.769 62.9082C128.305 62.73 128.728 62.3052 128.908 61.7688Z" fill="#9AE0E6"/>
</svg>